HIERARCHY
ROOT Hips
{
	OFFSET 0.000000 0.000000 0.000000
	CHANNELS 6 Xposition Yposition Zposition Zrotation Yrotation Xrotation 
	JOINT LHipJoint
	{
		OFFSET 0.000000 0.000000 0.000000
		CHANNELS 3 Zrotation Yrotation Xrotation
		JOINT LeftUpLeg
		{
			OFFSET 1.363060 -1.794630 0.839290
			CHANNELS 3 Zrotation Yrotation Xrotation
			JOINT LeftLeg
			{
				OFFSET 2.448110 -6.726130 0.000000
				CHANNELS 3 Zrotation Yrotation Xrotation
				JOINT LeftFoot
				{
					OFFSET 2.562200 -7.039590 0.000000
					CHANNELS 3 Zrotation Yrotation Xrotation
					JOINT LeftToeBase
					{
						OFFSET 0.157640 -0.433110 2.322550
						CHANNELS 3 Zrotation Yrotation Xrotation
						End Site
						{
							OFFSET 0.000000 0.000000 0.000000
						}
					}
				}
			}
		}
	}
	JOINT RHipJoint
	{
		OFFSET 0.000000 0.000000 0.000000
		CHANNELS 3 Zrotation Yrotation Xrotation
		JOINT RightUpLeg
		{
			OFFSET -1.305520 -1.794630 0.839290
			CHANNELS 3 Zrotation Yrotation Xrotation
			JOINT RightLeg
			{
				OFFSET -2.542530 -6.985550 0.000000
				CHANNELS 3 Zrotation Yrotation Xrotation
				JOINT RightFoot
				{
					OFFSET -2.568260 -7.056230 0.000000
					CHANNELS 3 Zrotation Yrotation Xrotation
					JOINT RightToeBase
					{
						OFFSET -0.164730 -0.452590 2.363150
						CHANNELS 3 Zrotation Yrotation Xrotation
						End Site
						{
							OFFSET 0.000000 0.000000 0.000000
						}
					}
				}
			}
		}
	}
	JOINT LowerBack
	{
		OFFSET 0.000000 0.000000 0.000000
		CHANNELS 3 Zrotation Yrotation Xrotation
		JOINT Spine
		{
			OFFSET 0.028270 2.035590 -0.193380
			CHANNELS 3 Zrotation Yrotation Xrotation
			JOINT Spine1
			{
				OFFSET 0.056720 2.048850 -0.042750
				CHANNELS 3 Zrotation Yrotation Xrotation
				JOINT Neck
				{
					OFFSET 0.000000 0.000000 0.000000
					CHANNELS 3 Zrotation Yrotation Xrotation
					JOINT Neck1
					{
						OFFSET -0.054170 1.746240 0.172020
						CHANNELS 3 Zrotation Yrotation Xrotation
						JOINT Head
						{
							OFFSET 0.104070 1.761360 -0.123970
							CHANNELS 3 Zrotation Yrotation Xrotation
							End Site
							{
								OFFSET 0.000000 0.000000 0.000000
							}
						}
					}
				}
				JOINT LeftShoulder
				{
					OFFSET 0.000000 0.000000 0.000000
					CHANNELS 3 Zrotation Yrotation Xrotation
					JOINT LeftArm
					{
						OFFSET 3.362410 1.200890 -0.311210
						CHANNELS 3 Zrotation Yrotation Xrotation
						JOINT LeftForeArm
						{
							OFFSET 4.983000 -0.000000 -0.000000
							CHANNELS 3 Zrotation Yrotation Xrotation
							JOINT LeftHand
							{
								OFFSET 3.483560 -0.000000 -0.000000
								CHANNELS 3 Zrotation Yrotation Xrotation
								JOINT LeftFingerBase
								{
									OFFSET 0.000000 0.000000 0.000000
									CHANNELS 3 Zrotation Yrotation Xrotation
									JOINT LeftHandIndex1
									{
										OFFSET 0.715260 -0.000000 -0.000000
										CHANNELS 3 Zrotation Yrotation Xrotation
										End Site
										{
											OFFSET 0.000000 0.000000 0.000000
										}
									}
								}
								JOINT LThumb
								{
									OFFSET 0.000000 0.000000 0.000000
									CHANNELS 3 Zrotation Yrotation Xrotation
									End Site
									{
										OFFSET 0.000000 0.000000 0.000000
									}
								}
							}
						}
					}
				}
				JOINT RightShoulder
				{
					OFFSET 0.000000 0.000000 0.000000
					CHANNELS 3 Zrotation Yrotation Xrotation
					JOINT RightArm
					{
						OFFSET -3.136600 1.374050 -0.404650
						CHANNELS 3 Zrotation Yrotation Xrotation
						JOINT RightForeArm
						{
							OFFSET -5.241900 -0.000000 -0.000000
							CHANNELS 3 Zrotation Yrotation Xrotation
							JOINT RightHand
							{
								OFFSET -3.444170 -0.000000 -0.000000
								CHANNELS 3 Zrotation Yrotation Xrotation
								JOINT RightFingerBase
								{
									OFFSET 0.000000 0.000000 0.000000
									CHANNELS 3 Zrotation Yrotation Xrotation
									JOINT RightHandIndex1
									{
										OFFSET -0.622530 -0.000000 -0.000000
										CHANNELS 3 Zrotation Yrotation Xrotation
										End Site
										{
											OFFSET 0.000000 0.000000 0.000000
										}
									}
								}
								JOINT RThumb
								{
									OFFSET 0.000000 0.000000 0.000000
									CHANNELS 3 Zrotation Yrotation Xrotation
									End Site
									{
										OFFSET 0.000000 0.000000 0.000000
									}
								}
							}
						}
					}
				}
			}
		}
	}
}
MOTION
Frames: 7
Frame Time: 0.008333
7.753009 17.859195 34.579184 179.055704 -1.221747 -154.107382 9.042405 1.424031 -1.763133 -26.235594 -18.098837 -17.489688 -1.070418 4.706305 10.560533 -0.055342 -6.304841 -15.184639 2.264300 -9.396100 -27.042500 -13.376775 -3.126551 -1.727638 33.227236 15.158972 -16.107675 1.386101 -3.168625 7.021532 -1.088374 -0.777237 -20.844353 -2.166200 9.203900 -26.435300 -4.122373 0.370027 -24.724378 1.296512 0.186755 -5.179439 -0.254098 -0.934163 13.872139 -9.305340 -3.196228 -6.180011 12.969627 -6.549561 15.607017 2.206100 -2.483000 3.640800 15.656785 -1.100638 0.560883 -105.743277 -2.451868 9.853599 10.491123 -11.444427 -1.265588 -1.706474 1.311998 8.056443 19.934236 -11.929325 -5.109500 -7.125000 0.000000 0.000000 -3.793400 16.126800 2.596200 -11.151963 -0.497640 -0.300372 100.543632 -4.290716 8.161048 -16.356195 27.860600 -5.212978 0.154222 3.848346 -3.072793 -8.112024 -48.148445 6.699300 7.125000 0.000000 0.000000 64.854900 -74.058500 -49.106200 
7.754325 17.860072 34.574799 179.062679 -1.249650 -154.183305 9.043448 1.449733 -1.766247 -26.287998 -17.888892 -17.449482 -1.063193 4.699590 10.568659 -0.076973 -6.412196 -15.094018 2.477500 -9.796900 -28.321400 -13.361321 -3.129243 -1.746628 33.257214 15.069240 -15.997794 1.381067 -3.156525 7.029694 -1.097837 -0.660380 -20.880560 -2.091300 9.053800 -25.963800 -4.190556 0.487334 -24.624266 1.211448 0.405418 -5.139261 -0.339474 -0.843720 13.926264 -8.924635 -3.413286 -6.328932 12.848946 -6.804141 15.518852 2.056700 -2.604000 3.626400 15.664912 -1.103436 0.551498 -105.404105 -2.673309 9.939423 10.428532 -11.350292 -1.250660 -1.675812 1.358976 8.153111 19.782373 -12.236977 -5.201300 -7.125000 0.000000 0.000000 -3.928600 15.765200 2.719900 -11.150703 -0.484022 -0.291049 100.877169 -4.235725 7.447057 -16.151864 27.615996 -5.108677 0.190693 3.837295 -2.914379 -8.520499 -47.852587 7.014200 7.125000 0.000000 0.000000 63.579000 -74.105800 -48.024400 
7.755092 17.864348 34.565261 179.081231 -1.246104 -154.444022 9.014100 1.484920 -1.752143 -26.355442 -17.655044 -17.148108 -1.059883 4.643341 10.509325 -0.080569 -6.455642 -15.065690 2.622500 -10.057400 -29.162700 -13.345666 -3.180218 -1.776652 33.367770 14.723819 -15.678150 1.367446 -3.086866 6.968522 -1.108226 -0.358458 -20.828897 -2.018200 8.904000 -25.495300 -4.173751 0.403439 -24.429954 1.285157 0.270760 -5.140147 -0.170154 -0.886103 13.864841 -9.307118 -3.189768 -6.003074 13.060265 -6.590791 15.345206 2.230200 -2.521100 3.500400 15.646506 -1.129748 0.568045 -105.640545 -2.544606 9.464619 10.440660 -11.382084 -1.253011 -1.673033 1.364653 8.294107 19.767510 -12.270222 -5.210700 -7.125000 0.000000 0.000000 -3.939700 15.730200 2.730600 -11.118530 -0.527941 -0.279516 100.538052 -4.424548 7.521075 -15.938730 27.338414 -4.997471 0.232383 3.818415 -2.716358 -8.857963 -47.202697 7.235500 7.125000 0.000000 0.000000 61.163900 -73.976300 -45.764200 
7.757613 17.867088 34.561205 179.121702 -1.296115 -154.612596 9.009202 1.513142 -1.740833 -26.335719 -17.630937 -16.925704 -1.057989 4.605447 10.460952 -0.086029 -6.517036 -15.065192 2.492600 -9.824400 -28.409800 -13.331200 -3.199164 -1.806560 33.483622 14.532780 -15.440943 1.366690 -3.035832 6.912629 -1.108534 -0.368309 -20.783906 -2.076300 9.023200 -25.868000 -4.188888 0.485079 -24.226025 1.227284 0.413960 -5.110745 -0.221366 -0.816987 13.846626 -9.233897 -3.144051 -6.105189 13.260150 -6.586014 15.410579 2.291000 -2.507800 3.561600 15.652605 -1.135905 0.562262 -105.397891 -2.603769 9.890161 10.445198 -11.381841 -1.255971 -1.673469 1.345833 8.176271 19.760405 -12.146556 -5.155100 -7.125000 0.000000 0.000000 -3.941800 15.877700 2.719500 -11.116970 -0.527620 -0.262000 100.793697 -4.375208 6.790391 -15.636755 26.958117 -4.840526 0.279127 3.827298 -2.188621 -9.072978 -47.221803 7.416800 7.125000 0.000000 0.000000 61.109900 -74.072700 -45.820800 
7.761231 17.865882 34.564932 179.084816 -1.363659 -154.549150 9.001076 1.494153 -1.739694 -26.305938 -17.646330 -17.054768 -1.051756 4.630195 10.503507 -0.108982 -6.672632 -15.067655 2.353700 -9.566800 -27.585000 -13.344427 -3.200627 -1.788653 33.465476 14.581890 -15.523729 1.372615 -3.046143 6.912637 -1.105061 -0.507434 -20.801631 -2.134200 9.140200 -26.234900 -4.241748 0.317407 -24.249258 1.334035 0.156082 -5.162725 0.008994 -0.928017 13.740805 -9.590823 -3.061912 -5.820409 13.355998 -6.512871 15.164388 2.404600 -2.499400 3.419100 15.635574 -1.143130 0.565096 -105.717953 -2.418149 9.473596 10.491321 -11.468956 -1.269775 -1.664398 1.333418 8.142674 19.637114 -12.135877 -5.112300 -7.125000 0.000000 0.000000 -4.033700 15.912600 2.780200 -11.074236 -0.569365 -0.263044 100.393381 -4.539958 7.028138 -15.388768 26.630366 -4.710806 0.311920 3.870564 -1.996455 -9.421225 -47.569139 7.748800 7.125000 0.000000 0.000000 62.153300 -74.366900 -47.050100 
7.762217 17.864238 34.567673 179.072928 -1.376335 -154.447823 9.002605 1.483234 -1.741041 -26.282232 -17.670968 -17.170868 -1.052336 4.633063 10.482753 -0.119179 -6.727433 -15.057913 2.323800 -9.510200 -27.404800 -13.352110 -3.186802 -1.774343 33.429730 14.672076 -15.656543 1.375430 -3.070839 6.934439 -1.105121 -0.547653 -20.838348 -2.124900 9.121500 -26.176100 -4.272821 0.291796 -24.312358 1.351440 0.114424 -5.189834 0.073439 -0.956192 13.695997 -9.721776 -3.103378 -5.981928 13.336498 -6.532234 15.428373 2.433500 -2.494100 3.570200 15.628369 -1.105645 0.554594 -105.766239 -2.355681 9.395608 10.517831 -11.514973 -1.279319 -1.655543 1.335584 8.150014 19.578738 -12.184736 -5.114700 -7.125000 0.000000 0.000000 -4.081900 15.863700 2.817900 -11.061741 -0.552093 -0.260293 100.329980 -4.643615 6.892498 -15.213216 26.411967 -4.623321 0.328276 3.888486 -2.127300 -9.837864 -47.627846 8.106500 7.125000 0.000000 0.000000 62.125900 -74.561000 -47.234600 
7.759367 17.864348 34.568221 179.115956 -1.372192 -154.334019 9.013005 1.474952 -1.751646 -26.229338 -17.633986 -17.277373 -1.055206 4.610045 10.400086 -0.133966 -6.754683 -14.952851 2.264000 -9.395600 -27.040900 -13.351235 -3.181288 -1.764493 33.437520 14.681126 -15.842255 1.372194 -3.107858 6.979592 -1.100867 -0.457647 -20.811041 -2.149500 9.170800 -26.330900 -4.211040 0.384789 -24.417227 1.317145 0.217166 -5.189239 0.000249 -0.904711 13.712321 -9.614905 -3.075996 -5.821953 13.451671 -6.560456 15.138328 2.445400 -2.524800 3.419200 15.631067 -1.142153 0.554308 -105.666112 -2.438419 9.385285 10.517396 -11.516883 -1.278761 -1.659724 1.342206 8.375806 19.683967 -12.154994 -5.132700 -7.125000 0.000000 0.000000 -4.001600 15.885700 2.760300 -11.055784 -0.588312 -0.250406 100.472097 -4.637468 6.424048 -15.003239 26.143128 -4.518262 0.341253 3.909344 -2.158806 -10.108400 -47.823313 8.357500 7.125000 0.000000 0.000000 62.684100 -74.750500 -47.931000 
